<svg width="32" height="32" viewBox="0 0 32 32" fill="none" xmlns="http://www.w3.org/2000/svg">
<g clip-path="url(#clip0_1_27)">
<path d="M16 0C15.703 0 15.4181 0.118 15.208 0.32804C14.998 0.538081 14.88 0.822958 14.88 1.12V29.76H11.8176C11.5206 29.76 11.2357 29.878 11.0256 30.088C10.8156 30.2981 10.6976 30.583 10.6976 30.88C10.6976 31.177 10.8156 31.4619 11.0256 31.672C11.2357 31.882 11.5206 32 11.8176 32H19.8176C20.1146 32 20.3995 31.882 20.6096 31.672C20.8196 31.4619 20.9376 31.177 20.9376 30.88C20.9376 30.583 20.8196 30.2981 20.6096 30.088C20.3995 29.878 20.1146 29.76 19.8176 29.76H17.12V15.04H30.88C31.177 15.04 31.4619 14.922 31.672 14.712C31.882 14.5019 32 14.217 32 13.92V1.12C32 0.822958 31.882 0.538081 31.672 0.32804C31.4619 0.118 31.177 0 30.88 0H16.16C16.1329 8.21277e-05 16.1058 0.0011495 16.0787 0.0032C16.0525 0.00121047 16.0263 0.000143141 16 0V0ZM17.28 2.24H29.76V12.8H17.28V2.24Z" fill="#003F20"/>
</g>
<defs>
<clipPath id="clip0_1_27">
<rect width="32" height="32" fill="white"/>
</clipPath>
</defs>
</svg>
