<svg width="28" height="32" viewBox="0 0 28 32" fill="none" xmlns="http://www.w3.org/2000/svg">
<g clip-path="url(#clip0_1_25)">
<path d="M12 0C11.703 0 11.4181 0.118 11.208 0.32804C10.998 0.538081 10.88 0.822958 10.88 1.12V29.76H7.8176C7.52056 29.76 7.23568 29.878 7.02564 30.088C6.8156 30.2981 6.6976 30.583 6.6976 30.88C6.6976 31.177 6.8156 31.4619 7.02564 31.672C7.23568 31.882 7.52056 32 7.8176 32H15.8176C16.1146 32 16.3995 31.882 16.6096 31.672C16.8196 31.4619 16.9376 31.177 16.9376 30.88C16.9376 30.583 16.8196 30.2981 16.6096 30.088C16.3995 29.878 16.1146 29.76 15.8176 29.76H13.12V15.04H26.88C27.177 15.04 27.4619 14.922 27.672 14.712C27.882 14.5019 28 14.217 28 13.92V1.12C28 0.822958 27.882 0.538081 27.672 0.32804C27.4619 0.118 27.177 0 26.88 0H12.16C12.1329 8.21277e-05 12.1058 0.0011495 12.0787 0.0032C12.0525 0.00121047 12.0263 0.000143141 12 0V0ZM16.416 2.24H19.552V4.6176H22.688V2.24H25.76V4.6176H22.688V7.75328H25.76V10.8893H22.688V12.8H19.552V10.8896H16.416V12.8H13.28V10.8896H16.416V7.75328H13.28V4.61728H16.416V2.24ZM16.416 4.6176V7.75328H19.552V4.61728H16.416V4.6176ZM19.552 7.75328V10.8893H22.688V7.75328H19.552V7.75328Z" fill="#003F20"/>
</g>
<defs>
<clipPath id="clip0_1_25">
<rect width="32" height="32" fill="white" transform="translate(-4)"/>
</clipPath>
</defs>
</svg>
