<svg width="32" height="32" viewBox="0 0 32 32" fill="none" xmlns="http://www.w3.org/2000/svg">
<g clip-path="url(#clip0_2_43)">
<circle cx="15" cy="15" r="14" fill="#D9D9D9"/>
<path d="M15.0118 0C6.72819 0 0 6.72813 0 15.0116C0 23.2952 6.72813 30.0214 15.0118 30.0214C23.2952 30.0214 30.0234 23.2951 30.0234 15.0116C30.0234 6.72813 23.2953 0 15.0117 0H15.0118ZM15.0118 1.16787C22.664 1.16787 28.8555 7.35938 28.8555 15.0116C28.8555 16.1341 28.7222 17.2249 28.4707 18.2694L25.6641 17.7266L24.3809 13.2519L24.2949 12.9492L23.9922 12.8554L20.3633 11.7344L16.1816 3.69525L15.8848 3.123L15.3438 3.4745L9.65044 7.17762L9.46694 7.29681L9.40631 7.50769L6.41031 17.9688L2.02156 19.8085C1.47031 18.3141 1.16806 16.6989 1.16806 15.0116C1.16806 7.35938 7.35956 1.16787 15.0118 1.16787H15.0118ZM15.0625 5.05069L11.7794 11.5879L12.793 19.9902L18.4258 16.1191V20.0548L16.9531 20.4454L18.2559 28.4725C17.2156 28.7217 16.1291 28.8534 15.0117 28.8534C9.46087 28.8534 4.67856 25.5961 2.47069 20.8866L7.12106 18.9355L7.37894 18.828L7.45706 18.5585L10.4688 8.041L15.0625 5.05069V5.05069Z" fill="#003F20"/>
</g>
<defs>
<clipPath id="clip0_2_43">
<rect width="32" height="32" fill="white"/>
</clipPath>
</defs>
</svg>
